<?xml version="1.0" encoding="UTF-8" standalone="no"?><!DOCTYPE svg PUBLIC "-//W3C//DTD SVG 1.1//EN" "http://www.w3.org/Graphics/SVG/1.1/DTD/svg11.dtd"><svg width="100%" height="100%" viewBox="0 0 2088 921" version="1.1" xmlns="http://www.w3.org/2000/svg" xmlns:xlink="http://www.w3.org/1999/xlink" xml:space="preserve" xmlns:serif="http://www.serif.com/" style="fill-rule:evenodd;clip-rule:evenodd;stroke-linejoin:round;stroke-miterlimit:2;"><g><g><path d="M606.596,203.232c-10.349,4.21 -12.63,18.244 -4.385,26.488c12.981,12.805 33.504,-1.052 26.487,-17.892c-3.508,-8.42 -13.331,-12.104 -22.102,-8.596Z" style="fill:#3e3e3e;fill-rule:nonzero;"/><path d="M544.499,281.818c-7.367,7.368 -7.367,16.139 0,23.506c4.912,4.736 6.315,5.263 12.805,4.385c9.122,-1.227 15.262,-7.718 15.262,-16.138c0,-8.42 -6.14,-14.91 -15.262,-16.138c-6.49,-0.877 -7.893,-0.351 -12.805,4.385Z" style="fill:#3e3e3e;fill-rule:nonzero;"/><path d="M599.755,307.254c-7.543,3.508 -16.314,14.033 -17.717,21.4c-1.93,10.876 0.702,18.594 9.122,26.663c8.77,8.42 16.839,10.701 27.189,7.719c14.735,-4.386 21.751,-15.086 20.524,-30.873c-0.877,-10.35 -4.21,-16.489 -12.279,-22.454c-5.789,-4.385 -19.822,-5.613 -26.839,-2.455Z" style="fill:#3e3e3e;fill-rule:nonzero;"/><path d="M463.633,366.193c-7.543,7.543 -7.192,17.191 1.052,26.312l6.14,6.666l0,99.11c0,105.775 0.701,117.177 8.946,139.104c9.472,25.435 36.135,54.554 61.571,67.36c22.277,11.051 39.819,14.91 64.553,13.682c49.642,-2.105 90.338,-29.119 111.388,-73.499c12.455,-26.312 12.104,-22.453 12.806,-139.806l0.526,-106.126l6.139,-6.666c16.139,-17.892 -2.28,-39.468 -23.856,-27.891c-4.035,2.105 -7.718,6.315 -10.525,11.753l-4.385,8.42l-0.878,113.318l1.932,78.759l-1.277,28.779c-4.063,42.248 -53.378,70.652 -73.173,76.204c-4.561,1.052 -14.72,4.249 -27.361,4.284c-7.496,0.02 -28.161,-1.022 -42.947,-8.465c-19.872,-10.004 -43.089,-29.278 -50.899,-69.966l0.769,-108.718l-0.877,-114.195l-4.386,-8.596c-7.718,-15.085 -25.084,-19.997 -35.258,-9.823Z" style="fill:#3e3e3e;fill-rule:nonzero;"/><path d="M470.486,399.304l-6.052,-6.571c-4.185,-4.63 -6.356,-9.399 -6.534,-13.963c-0.179,-4.584 1.647,-8.97 5.493,-12.817c10.325,-10.325 27.967,-5.401 35.8,9.909l4.386,8.596c0.024,0.047 0.036,0.098 0.037,0.151l0.877,114.196l-0.769,108.689c7.791,40.526 30.915,59.728 50.712,69.694c14.733,7.416 35.325,8.449 42.794,8.429c12.599,-0.035 22.725,-3.222 27.277,-4.274c11.844,-3.324 34.274,-14.851 51.201,-32.633c11.267,-11.836 20.098,-26.446 21.719,-43.266l1.276,-28.759l-1.932,-78.758l0.877,-113.318c0.001,-0.054 0.014,-0.106 0.039,-0.154c0,0 4.385,-8.42 4.385,-8.419c2.843,-5.508 6.582,-9.765 10.665,-11.896c10.963,-5.882 21.12,-3.31 26.49,2.973c5.378,6.293 5.992,16.339 -2.221,25.444l-6.053,6.572l-0.525,105.995c-0.703,117.475 -0.371,113.61 -12.838,139.949c-21.105,44.497 -61.908,71.582 -111.679,73.693c-24.797,1.231 -42.385,-2.638 -64.722,-13.718c-25.504,-12.84 -52.238,-42.04 -61.736,-67.543c-8.251,-21.946 -8.967,-33.357 -8.967,-139.224l0,-98.977Zm-6.853,-33.111c-7.543,7.543 -7.192,17.191 1.052,26.312l6.14,6.666l0,99.11c0,105.775 0.701,117.177 8.946,139.104c9.472,25.435 36.135,54.554 61.571,67.36c22.277,11.051 39.819,14.91 64.553,13.682c49.642,-2.105 90.338,-29.119 111.388,-73.499c12.455,-26.312 12.104,-22.453 12.806,-139.806l0.526,-106.126l6.139,-6.666c16.139,-17.892 -2.28,-39.468 -23.856,-27.891c-4.035,2.105 -7.718,6.315 -10.525,11.753l-4.385,8.42l-0.878,113.318l1.932,78.759l-1.277,28.779c-4.063,42.248 -53.378,70.652 -73.173,76.204c-4.561,1.052 -14.72,4.249 -27.361,4.284c-7.496,0.02 -28.161,-1.022 -42.947,-8.465c-19.872,-10.004 -43.089,-29.278 -50.899,-69.966l0.769,-108.718l-0.877,-114.195l-4.386,-8.596c-7.718,-15.085 -25.084,-19.997 -35.258,-9.823Z" style="fill:#294ace;"/><path d="M649.435,398.816c0.045,1.072 0.217,3.854 0.567,6.661l0.623,7.377l29.821,0l0,-13.683l-14.735,-0.175c-9.648,-0.176 -14.844,-0.178 -16.276,-0.18Z" style="fill:#3e3e3e;fill-rule:nonzero;"/><path d="M649.573,436.359l1.052,13.332l29.821,0l0,-12.279l-30.873,-1.053Z" style="fill:#3e3e3e;fill-rule:nonzero;"/><path d="M649.573,471.442l1.052,13.332l29.821,0l0,-12.279l-30.873,-1.053Z" style="fill:#3e3e3e;fill-rule:nonzero;"/><path d="M661.15,504.42c-1.929,0.351 -15.261,5.087 -29.82,10.174c-41.574,14.911 -51.046,16.84 -88.585,17.191l-21.927,0.351l-0.526,30.698c-0.351,27.014 0,32.101 3.157,42.976c2.105,6.666 5.789,15.262 8.245,19.121c17.717,27.189 43.152,39.644 76.305,37.363c33.154,-2.28 61.922,-26.663 70.693,-59.992c3.508,-13.682 3.859,-95.25 0.526,-96.478c-4.736,-1.404 -14.735,-2.105 -18.068,-1.404Z" style="fill:#3e3e3e;fill-rule:nonzero;"/></g><g><path d="M926.936,579.786l0,-10.752c0,-8.338 -2.844,-16.883 -13.13,-20.163c9.411,-5.913 12.692,-14.906 12.692,-24.118l0.219,-43.868c0,-18.644 -10.718,-30.677 -30.247,-30.677l-27.394,0l0,153.461l35.074,0c10.973,0 22.786,-6.779 22.786,-23.883Zm-46.266,-119.08l15.8,0c14.483,0.219 19.091,8.554 19.091,20.179l0,43.648c0,13.161 -10.752,21.276 -18.652,21.276l-16.239,0l0,-85.103Zm34.891,108.328l0,10.752c0,4.169 -1.316,13.605 -11.411,13.605l-23.48,0l0,-37.523l20.408,0c8.339,0.22 14.483,4.389 14.483,13.166Z" style="fill:#3e3e3e;fill-rule:nonzero;"/><path d="M1011.35,449.961l-12.059,0c-4.386,18.2 -9.429,37.276 -14.253,56.133l-8.976,41.881l-8.757,-41.661l-14.472,-56.353l-11.621,0l29.163,115.336l0,38.372l11.374,0l0,-38.372l29.601,-115.336Z" style="fill:#3e3e3e;fill-rule:nonzero;"/><path d="M1072.31,460.267l0,-10.059l-53.913,0l0,10.059l21.489,0l0,143.402l11.155,0l0,-143.402l21.269,0Z" style="fill:#3e3e3e;fill-rule:nonzero;"/><path d="M1100.6,460.267l41.661,0l0,-10.059l-53.255,0l0,153.461l53.255,0l0,-10.278l-41.661,0l0,-30.725l33.11,0l0,-10.059l-33.11,0l0,-92.34Z" style="fill:#3e3e3e;fill-rule:nonzero;"/><path d="M1188.76,605.423c19.963,0 29.368,-14.884 29.368,-31.99l0,-11.185c0,-15.571 -13.569,-21.712 -29.148,-30.484c-8.996,-5.045 -17.994,-10.747 -18.652,-20.835l0,-30.265c0,-14.256 6.583,-21.055 16.459,-21.055c11.631,0 16.02,9.431 16.02,20.835l0,19.739l11.155,0l0,-19.958c0,-17.764 -9.843,-31.113 -27.175,-31.113c-19.303,0 -28.053,14.007 -28.053,31.552l0,30.703c1.312,17.546 16.202,24.783 28.709,31.801c10.533,5.921 19.53,9.869 19.53,19.957l0,10.308c0,12.062 -6.144,21.712 -18.213,21.712c-13.165,0 -19.528,-10.746 -19.09,-22.151l0,-14.913l-11.375,0l0,14.913c-0.219,19.519 12.472,32.429 30.465,32.429Z" style="fill:#3e3e3e;fill-rule:nonzero;"/><rect x="1239.2" y="450.181" width="11.594" height="153.488" style="fill:#3e3e3e;fill-rule:nonzero;"/><path d="M1323.15,458.518l0,-8.31l-52.819,0l0,10.278l41.203,0l-46.243,134.435l0,8.748l57.421,0l0,-10.717l-45.148,0l45.586,-134.434Z" style="fill:#3e3e3e;fill-rule:nonzero;"/><path d="M1351.88,460.267l41.662,0l0,-10.059l-53.255,0l0,153.461l53.255,0l0,-10.278l-41.662,0l0,-30.725l33.11,0l0,-10.059l-33.11,0l0,-92.34Z" style="fill:#3e3e3e;fill-rule:nonzero;"/><path d="M1491.77,593.391l-33.548,0l0,-143.183l-11.594,0l0,153.461l45.142,0l0,-10.278Z" style="fill:#3e3e3e;fill-rule:nonzero;"/><path d="M1547.26,562.447l6.356,41.222l11.397,0l-23.889,-153.461l-13.37,0l-23.67,153.461l11.616,0l6.356,-41.222l0,0.219l25.204,0l0,-0.219Zm-1.315,-10.279l-22.574,0l5.698,-37.276l5.48,-45.388l5.479,45.388l5.917,37.276Z" style="fill:#3e3e3e;fill-rule:nonzero;"/><path d="M1640.88,579.786l0,-10.752c0,-8.338 -2.844,-16.883 -13.13,-20.163c9.411,-5.913 12.692,-14.906 12.692,-24.118l0.219,-43.868c0,-18.644 -10.718,-30.677 -30.247,-30.677l-27.394,0l0,153.461l35.075,0c10.972,0 22.785,-6.779 22.785,-23.883Zm-46.266,-119.08l15.8,0c14.483,0.219 19.092,8.554 19.092,20.179l0,43.648c0,13.161 -10.753,21.276 -18.653,21.276l-16.239,0l0,-85.103Zm34.892,108.328l0,10.752c0,4.169 -1.317,13.605 -11.411,13.605l-23.481,0l0,-37.523l20.409,0c8.338,0.22 14.483,4.389 14.483,13.166Z" style="fill:#3e3e3e;fill-rule:nonzero;"/><path d="M1691.32,605.423c19.963,0 29.368,-14.884 29.368,-31.99l0,-11.185c0,-15.571 -13.569,-21.712 -29.149,-30.484c-8.996,-5.045 -17.993,-10.747 -18.652,-20.835l0,-30.265c0,-14.256 6.584,-21.055 16.459,-21.055c11.631,0 16.021,9.431 16.021,20.835l0,19.739l11.155,0l0,-19.958c0,-17.764 -9.843,-31.113 -27.176,-31.113c-19.302,0 -28.052,14.007 -28.052,31.552l0,30.703c1.312,17.546 16.202,24.783 28.709,31.801c10.533,5.921 19.53,9.869 19.53,19.957l0,10.308c0,12.062 -6.144,21.712 -18.213,21.712c-13.165,0 -19.528,-10.746 -19.09,-22.151l0,-14.913l-11.375,0l0,14.913c-0.219,19.519 12.472,32.429 30.465,32.429Z" style="fill:#3e3e3e;fill-rule:nonzero;"/></g></g></svg>