<?xml version="1.0" encoding="UTF-8" standalone="no"?>
<!DOCTYPE svg PUBLIC "-//W3C//DTD SVG 1.1//EN" "http://www.w3.org/Graphics/SVG/1.1/DTD/svg11.dtd">
<svg width="100%" height="100%" viewBox="0 0 508 921" version="1.1" xmlns="http://www.w3.org/2000/svg" xmlns:xlink="http://www.w3.org/1999/xlink" xml:space="preserve" xmlns:serif="http://www.serif.com/" style="fill-rule:evenodd;clip-rule:evenodd;stroke-linejoin:round;stroke-miterlimit:2;">
    <g transform="matrix(3.125,0,0,3.125,0,0)">
        <g transform="matrix(0.0939334,0,0,-0.0939334,-247.479,471.85)">
            <path d="M3534,4920C3475,4896 3462,4816 3509,4769C3583,4696 3700,4775 3660,4871C3640,4919 3584,4940 3534,4920Z" style="fill:white;fill-rule:nonzero;"/>
            <path d="M3180,4472C3138,4430 3138,4380 3180,4338C3208,4311 3216,4308 3253,4313C3305,4320 3340,4357 3340,4405C3340,4453 3305,4490 3253,4497C3216,4502 3208,4499 3180,4472Z" style="fill:white;fill-rule:nonzero;"/>
            <path d="M3495,4327C3452,4307 3402,4247 3394,4205C3383,4143 3398,4099 3446,4053C3496,4005 3542,3992 3601,4009C3685,4034 3725,4095 3718,4185C3713,4244 3694,4279 3648,4313C3615,4338 3535,4345 3495,4327Z" style="fill:white;fill-rule:nonzero;"/>
            <path d="M2719,3991C2676,3948 2678,3893 2725,3841L2760,3803L2760,3238C2760,2635 2764,2570 2811,2445C2865,2300 3017,2134 3162,2061C3289,1998 3389,1976 3530,1983C3813,1995 4045,2149 4165,2402C4236,2552 4234,2530 4238,3199L4241,3804L4276,3842C4368,3944 4263,4067 4140,4001C4117,3989 4096,3965 4080,3934L4055,3886L4050,3240L4061.01,2791.01L4053.73,2626.95C4030.57,2386.11 3749.44,2224.18 3636.59,2192.53C3610.59,2186.53 3552.67,2168.31 3480.61,2168.11C3437.88,2167.99 3320.07,2173.94 3235.78,2216.37C3122.49,2273.4 2990.14,2383.27 2945.62,2615.22L2950,3235L2945,3886L2920,3935C2876,4021 2777,4049 2719,3991Z" style="fill:white;fill-rule:nonzero;"/>
            <path d="M3778.21,3805.03C3778.47,3798.91 3779.45,3783.05 3781.45,3767.05L3785,3725L3955,3725L3955,3803L3871,3804C3816,3805 3786.38,3805.01 3778.21,3805.03Z" style="fill:white;fill-rule:nonzero;"/>
            <path d="M3779,3591L3785,3515L3955,3515L3955,3585L3779,3591Z" style="fill:white;fill-rule:nonzero;"/>
            <path d="M3779,3391L3785,3315L3955,3315L3955,3385L3779,3391Z" style="fill:white;fill-rule:nonzero;"/>
            <path d="M3845,3203C3834,3201 3758,3174 3675,3145C3438,3060 3384,3049 3170,3047L3045,3045L3042,2870C3040,2716 3042,2687 3060,2625C3072,2587 3093,2538 3107,2516C3208,2361 3353,2290 3542,2303C3731,2316 3895,2455 3945,2645C3965,2723 3967,3188 3948,3195C3921,3203 3864,3207 3845,3203Z" style="fill:white;fill-rule:nonzero;"/>
        </g>
    </g>
</svg>
