<?xml version="1.0" encoding="UTF-8" standalone="no"?><!DOCTYPE svg PUBLIC "-//W3C//DTD SVG 1.1//EN" "http://www.w3.org/Graphics/SVG/1.1/DTD/svg11.dtd"><svg width="100%" height="100%" viewBox="0 0 8467 10417" version="1.1" xmlns="http://www.w3.org/2000/svg" xmlns:xlink="http://www.w3.org/1999/xlink" xml:space="preserve" xmlns:serif="http://www.serif.com/" style="fill-rule:evenodd;clip-rule:evenodd;stroke-linejoin:round;stroke-miterlimit:2;"><g><path d="M2233.23,10379.1c-17.923,0 -37.235,-4.531 -50.661,-22.686l-574.901,-756.018l0,771.164l-131.085,0l0,-949.603c0,-37.798 31.283,-68.023 67.064,-68.023c20.833,0 38.69,6.019 52.083,24.173l573.413,754.498l0,-768.089l131.051,0l0,948.016c0,39.319 -31.283,66.534 -66.997,66.534m1084.33,9.094c-131.018,0 -268.088,-27.248 -396.164,-75.595l31.284,-108.895c117.658,37.83 245.734,65.046 364.88,65.046c165.344,0 251.72,-58.995 251.72,-142.13c0,-75.595 -67.063,-113.426 -297.884,-222.288c-230.853,-108.862 -321.66,-178.373 -321.66,-314.484c0,-170.834 131.019,-240.41 378.241,-240.41c102.778,0 260.648,21.164 351.521,48.412l-20.833,111.872c-99.868,-24.173 -224.901,-40.807 -327.712,-40.807c-174.206,0 -245.701,33.234 -245.701,116.402c0,81.647 52.084,116.403 296.363,229.828c257.672,119.445 323.181,179.928 323.181,303.903c0,179.96 -169.808,269.146 -387.236,269.146m1008.33,-1023.61l135.516,0l0,1006.95l-135.516,0l0,-1006.95Zm1288.36,550.364l-336.641,0l0,341.733l336.641,0c114.649,0 184.656,-72.586 184.656,-173.942c0,-95.238 -72.95,-167.791 -184.656,-167.791m-65.576,-435.483l-271.065,0l0,322.09l271.065,0c108.73,0 187.666,-69.577 187.666,-166.336c0,-95.238 -68.519,-155.754 -187.666,-155.754m67.064,892.097l-405.093,0c-0.32,0.004 -0.64,0.007 -0.96,0.007c-37.081,0 -67.593,-30.513 -67.593,-67.593c0,-0.146 0.001,-0.291 0.001,-0.437l0,-870.965c0,-36.31 29.795,-68.023 68.552,-68.023l335.086,0c205.523,0 327.646,101.29 327.646,260.053c0,86.177 -50.662,166.336 -128.109,213.195c114.749,34.788 192.13,130.026 192.13,244.94c0,160.251 -132.54,288.79 -321.66,288.79m972.52,0.033c-37.17,0 -66.965,-31.746 -66.965,-68.023l0,-938.955l135.483,0l0,884.524l539.153,0l0,122.454l-607.671,0Zm1531.55,16.633c-277.017,0 -443.816,-102.81 -443.816,-309.953c0,-98.281 55.126,-192.031 162.368,-235.88c-86.409,-54.431 -131.085,-131.548 -131.085,-216.204c0,-187.5 144.511,-276.719 415.542,-276.719c90.873,0 218.916,10.582 326.191,34.788l-14.914,111.872c-113.162,-18.155 -218.949,-28.704 -321.726,-28.704c-175.728,0 -269.577,48.38 -269.577,164.815c0,92.262 86.409,164.815 201.091,164.815l232.308,0c32.772,0 58.102,25.694 58.102,57.44c0,33.267 -25.33,58.962 -58.102,58.962l-250.165,0c-131.085,0 -214.451,64.98 -214.451,164.815c0,146.66 135.516,190.476 305.291,190.476c92.361,0 217.427,-12.037 318.684,-36.244l19.411,110.351c-96.825,27.249 -223.446,45.37 -335.152,45.37m-7651.72,-834.755l237.367,594.709l-358.465,-286.706l121.098,-308.003Zm421.66,731.713l-365.08,-891.997c-10.383,-25.728 -31.25,-39.352 -56.58,-39.352c-25.669,-0.482 -49.004,15.332 -58.069,39.352l-400.728,978.406l137.037,0l158.664,-403.373l473.347,388.227c19.047,15.642 32.771,22.685 50.661,22.685c35.715,0 67.031,-27.182 67.031,-66.468c0,-6.415 -2.249,-16.534 -6.283,-27.447l0,-0.033Z" style="fill:#808080;fill-rule:nonzero;"/></g><path d="M8462.14,4228.44c0,2329.86 -1888.56,4218.42 -4218.48,4218.42c-2329.7,0 -4218.45,-1888.56 -4218.45,-4218.42c0,-2329.7 1888.76,-4218.45 4218.45,-4218.45c2329.89,0 4218.48,1888.76 4218.48,4218.45" style="fill:#808080;fill-rule:nonzero;"/><path d="M4314.68,2586.94l1091.63,2694.31l-1648.91,-1298.88l557.276,-1395.4l0,-0.033Zm1939.29,3314.98l-1679.17,-4041.07c-47.95,-116.535 -143.783,-178.241 -260.119,-178.241c-116.568,0 -219.379,61.706 -267.329,178.241l-1842.99,4432.54l630.456,0l729.564,-1827.55l2177.25,1758.93c87.533,70.8 150.727,102.843 232.837,102.843c164.484,0 308.267,-123.346 308.267,-301.289c0,-28.969 -10.251,-74.967 -28.77,-124.405Z" style="fill:#fff;fill-rule:nonzero;"/></svg>