<svg id="Capa_1" enable-background="new 0 0 512 512" height="512" viewBox="0 0 512 512" width="512" xmlns="http://www.w3.org/2000/svg"><g><g><circle cx="256" cy="46.522" fill="#7c8b96" r="25.853"/></g><g><path d="m266.8 23.034c1.514 3.287 2.365 6.943 2.365 10.8 0 14.278-11.575 25.853-25.853 25.853-3.857 0-7.512-.851-10.8-2.365 4.091 8.883 13.067 15.053 23.488 15.053 14.278 0 25.853-11.575 25.853-25.853 0-10.421-6.17-19.397-15.053-23.488z" fill="#465961"/></g><g><path d="m42.377 155.354h427.246v283.122h-427.246z" fill="#fceed9"/></g><g><path d="m446.482 155.354v203.598c0 23.663-19.183 42.846-42.846 42.846h-361.259v36.678h427.246v-283.122z" fill="#fad59a"/></g><g><g><g><path d="m86.715 374.72c-3.821 0-7.641-1.458-10.556-4.373-5.83-5.83-5.83-15.283 0-21.113l71.743-71.743c5.83-5.83 15.283-5.83 21.113 0l30.467 30.467 73.206-73.206c5.83-5.83 15.283-5.83 21.113 0 5.831 5.83 5.831 15.283 0 21.113l-83.762 83.762c-5.83 5.83-15.283 5.83-21.113 0l-30.467-30.467-61.187 61.187c-2.916 2.915-6.737 4.373-10.557 4.373z" fill="#dd636e"/></g></g><g><path d="m293.8 236.212-91.246 91.246c-1.697 1.697-4.448 1.697-6.145 0l-33.728-33.728c-2.332-2.332-6.113-2.332-8.445 0l-56.964 56.964c-2.915 2.915-6.736 4.373-10.556 4.373s-7.641-1.458-10.556-4.373c-.235-.235-.444-.484-.66-.73-5.145 5.864-4.936 14.787.66 20.382 2.915 2.915 6.736 4.373 10.556 4.373s7.641-1.458 10.556-4.373l61.187-61.187 30.467 30.467c5.83 5.83 15.282 5.83 21.113 0l83.762-83.762c5.596-5.595 5.806-14.519.66-20.382-.217.246-.426.496-.661.73z" fill="#d82e3d"/></g><g><path d="m256.141 216.221h51.073c3.149 0 5.702 2.553 5.702 5.702v51.073c0 5.08-6.142 7.624-9.734 4.032l-51.073-51.073c-3.592-3.592-1.048-9.734 4.032-9.734z" fill="#dd636e"/></g><g><path d="m307.214 216.221h-14.387v50.451l10.355 10.355c3.592 3.592 9.734 1.048 9.734-4.032v-51.073c-.001-3.148-2.553-5.701-5.702-5.701z" fill="#d82e3d"/></g></g><g><path d="m492.673 172.043h-473.346c-6.551 0-11.862-5.311-11.862-11.862v-41.839c0-6.551 5.311-11.862 11.862-11.862h473.346c6.551 0 11.862 5.311 11.862 11.862v41.839c0 6.551-5.311 11.862-11.862 11.862z" fill="#9d6b6b"/></g><g><path d="m492.673 491.331h-473.346c-6.551 0-11.862-5.311-11.862-11.862v-41.839c0-6.551 5.311-11.862 11.862-11.862h473.346c6.551 0 11.862 5.311 11.862 11.862v41.839c0 6.551-5.311 11.862-11.862 11.862z" fill="#9d6b6b"/></g><g><path d="m492.729 106.48h-13.793v28.158c0 6.52-5.286 11.806-11.806 11.806h-459.665v13.793c0 6.521 5.286 11.806 11.806 11.806h473.458c6.52 0 11.806-5.286 11.806-11.806v-41.951c0-6.52-5.285-11.806-11.806-11.806z" fill="#785252"/></g><g><path d="m492.729 425.767h-13.793v28.158c0 6.52-5.286 11.806-11.806 11.806h-459.665v13.793c0 6.52 5.286 11.806 11.806 11.806h473.458c6.52 0 11.806-5.286 11.806-11.806v-41.951c0-6.52-5.285-11.806-11.806-11.806z" fill="#785252"/></g><g><path d="m64.321 359.791c0 5.981 2.33 11.605 6.559 15.835 4.229 4.229 9.853 6.559 15.834 6.559s11.605-2.33 15.834-6.559l55.909-55.909 25.189 25.189c8.731 8.73 22.938 8.73 31.669 0l72.593-72.595 9.995 9.995c3.779 3.778 9.412 4.9 14.348 2.854 4.937-2.045 8.128-6.82 8.128-12.165v-51.073c0-7.259-5.907-13.166-13.166-13.166h-51.073c-5.344 0-10.118 3.19-12.164 8.127-2.045 4.937-.925 10.57 2.854 14.35l9.409 9.408-56.759 56.76-25.189-25.189c-8.731-8.73-22.938-8.73-31.669 0l-71.742 71.744c-4.229 4.23-6.559 9.854-6.559 15.835zm17.115-5.277 71.743-71.743c1.455-1.456 3.367-2.183 5.278-2.183s3.823.727 5.278 2.183l30.467 30.467c2.915 2.914 7.641 2.914 10.556 0l67.316-67.316c2.915-2.916 2.915-7.641 0-10.557l-11.679-11.678h45.055v45.055l-12.263-12.264c-1.401-1.4-3.299-2.186-5.279-2.186s-3.878.786-5.279 2.186l-77.871 77.872c-2.911 2.912-7.646 2.912-10.556 0l-30.467-30.467c-2.915-2.914-7.641-2.914-10.556 0l-61.187 61.187c-8.817 7.051-16.485-4.935-10.556-10.556z"/><path d="m492.729 179.508c10.626 0 19.271-8.644 19.271-19.271v-41.951c0-10.626-8.645-19.271-19.271-19.271h-50.862c-4.123 0-7.465 3.342-7.465 7.465s3.342 7.465 7.465 7.465h50.862c2.394 0 4.342 1.948 4.342 4.342v41.951c0 2.394-1.948 4.342-4.342 4.342h-473.458c-2.394 0-4.342-1.948-4.342-4.342v-41.951c0-2.394 1.948-4.342 4.342-4.342h387.638c4.123 0 7.465-3.342 7.465-7.465s-3.342-7.465-7.465-7.465h-58.172l-60.304-44.894c.572-2.443.885-4.984.885-7.599 0-18.372-14.946-33.317-33.317-33.317s-33.317 14.946-33.317 33.317c0 2.615.312 5.157.885 7.599l-59.749 44.481c-.176.131-.34.271-.5.413h-144.049c-10.626 0-19.271 8.645-19.271 19.271v41.951c0 10.626 8.645 19.271 19.271 19.271h15.642v19.603c0 4.123 3.342 7.465 7.465 7.465s7.465-3.342 7.465-7.465v-19.603h412.317v238.796h-412.318v-182.948c0-4.123-3.342-7.465-7.465-7.465s-7.465 3.342-7.465 7.465v182.948h-15.641c-10.626-.001-19.271 8.644-19.271 19.269v41.951c0 10.626 8.645 19.271 19.271 19.271h131.044c4.123 0 7.465-3.342 7.465-7.465s-3.342-7.465-7.465-7.465h-131.044c-2.394 0-4.342-1.948-4.342-4.342v-41.951c0-2.394 1.948-4.341 4.342-4.341h473.458c2.394 0 4.342 1.947 4.342 4.341v41.951c0 2.394-1.948 4.342-4.342 4.342h-306.754c-4.122 0-7.465 3.342-7.465 7.465s3.342 7.465 7.465 7.465h306.755c10.626 0 19.271-8.645 19.271-19.271v-41.951c0-10.625-8.645-19.27-19.271-19.27h-15.642v-238.795zm-236.729-151.374c10.139 0 18.388 8.249 18.388 18.388s-8.249 18.388-18.388 18.388-18.388-8.249-18.388-18.388 8.249-18.388 18.388-18.388zm-25.691 39.58c6.116 7.401 15.362 12.126 25.691 12.126s19.575-4.725 25.691-12.126l42.046 31.302h-135.474z"/><path d="m390.914 391.181c22.16 0 40.19-18.03 40.19-40.19s-18.03-40.19-40.19-40.19-40.19 18.03-40.19 40.19 18.03 40.19 40.19 40.19zm0-65.451c13.929 0 25.261 11.332 25.261 25.261s-11.332 25.261-25.261 25.261-25.261-11.332-25.261-25.261 11.332-25.261 25.261-25.261z"/><path d="m390.914 289.593c22.16 0 40.19-18.03 40.19-40.19s-18.03-40.19-40.19-40.19-40.19 18.03-40.19 40.19 18.03 40.19 40.19 40.19zm0-65.45c13.929 0 25.261 11.332 25.261 25.261s-11.332 25.261-25.261 25.261-25.261-11.332-25.261-25.261c0-13.93 11.332-25.261 25.261-25.261z"/><path d="m128.915 379.753c-4.123 0-7.465 3.342-7.465 7.465s3.342 7.465 7.465 7.465h70.54c4.123 0 7.465-3.342 7.465-7.465s-3.342-7.465-7.465-7.465z"/><path d="m128.915 224.143h70.54c4.123 0 7.465-3.342 7.465-7.465s-3.342-7.465-7.465-7.465h-70.54c-4.123 0-7.465 3.342-7.465 7.465s3.342 7.465 7.465 7.465z"/><path d="m128.915 253.317h70.54c4.123 0 7.465-3.342 7.465-7.465s-3.342-7.465-7.465-7.465h-70.54c-4.123 0-7.465 3.342-7.465 7.465 0 4.124 3.342 7.465 7.465 7.465z"/><path d="m236.945 379.753c-4.123 0-7.465 3.342-7.465 7.465s3.342 7.465 7.465 7.465h23.39c4.123 0 7.465-3.342 7.465-7.465s-3.342-7.465-7.465-7.465z"/></g></g></svg>